<svg width="150" height="50" viewBox="0 0 256 256" fill="none" xmlns="http://www.w3.org/2000/svg">
  <path d="M187.242 140.351C194.196 132.467 197.122 122.038 194.978 111.962C192.833 101.886 186.016 93.5191 176.622 89.0818C177.066 86.3023 177.084 83.4685 176.676 80.684C176.267 77.8994 175.438 75.1992 174.22 72.6875C172.116 68.647 168.935 65.201 165.016 62.7112C161.097 60.2214 156.58 58.7669 151.889 58.4998C147.198 58.2328 142.53 59.1623 138.343 61.1951C134.156 63.2279 130.587 66.2919 127.964 70.0978C125.341 66.2919 121.772 63.2279 117.585 61.1951C113.398 59.1623 108.73 58.2328 104.039 58.4998C99.3484 58.7669 94.8306 60.2214 90.9118 62.7112C86.993 65.201 83.8124 68.647 81.7083 72.6875C80.4899 75.1992 79.6609 77.8994 79.2523 80.684C78.8437 83.4685 78.8622 86.3023 79.3063 89.0818C69.9125 93.5191 63.0957 101.886 60.9507 111.962C58.8058 122.038 61.7322 132.467 68.6858 140.351C63.0461 145.34 59.5228 152.282 58.8087 159.793C58.0947 167.305 60.2427 174.789 64.7456 180.674C69.2486 186.56 75.7682 190.403 83.0074 191.427C90.2466 192.451 97.6184 190.574 103.575 186.195C107.077 188.997 111.317 190.858 115.799 191.592C120.281 192.326 124.874 191.91 129.146 190.383C133.418 188.856 137.27 186.265 140.316 182.881C143.362 179.497 145.5 175.435 146.52 171.046C151.536 171.046 156.484 169.888 160.963 167.662C165.442 165.437 169.32 162.208 172.299 168.2C173.517 165.689 174.346 162.988 174.754 160.204C175.163 157.419 175.144 154.586 174.7 151.806C180.539 148.667 185.187 143.949 187.242 140.351ZM97.0459 173.577C91.8368 169.744 89.2056 163.396 90.1107 157.07C90.168 156.701 90.2352 156.341 90.3149 155.983C90.5226 155.116 90.7877 154.266 91.1084 153.436C91.7746 151.74 92.6412 150.131 93.6909 148.644C96.9626 143.715 101.984 140.67 107.435 140.488C108.199 140.491 108.962 140.535 109.72 140.618C111.272 140.798 112.79 141.17 114.236 141.722C116.493 142.581 118.553 143.879 120.297 145.53C123.829 148.922 125.962 153.583 126.21 158.521C126.419 162.481 125.322 166.4 123.088 169.681C120.854 172.962 117.594 175.446 113.853 176.741C110.112 178.037 106.085 178.081 102.318 176.868C98.5504 175.654 95.237 173.252 92.9279 170.022C94.0195 171.382 95.3981 172.521 97.0459 173.577ZM107.435 148.983C108.346 149.003 109.243 149.195 110.084 149.551C110.926 149.906 111.697 150.419 112.357 151.063C113.018 151.707 113.556 152.472 113.944 153.317C114.331 154.162 114.558 155.071 114.612 155.997C114.666 156.923 114.546 157.851 114.258 158.733C113.97 159.614 113.521 160.434 112.933 161.149C112.346 161.863 111.632 162.459 110.83 162.904C110.028 163.348 109.153 163.634 108.246 163.746C107.613 163.837 106.97 163.837 106.338 163.746C105.43 163.634 104.556 163.348 103.753 162.904C102.951 162.459 102.237 161.863 101.65 161.149C101.063 160.434 100.614 159.614 100.326 158.733C100.038 157.851 99.9175 156.923 99.9713 155.997C100.025 155.071 100.253 154.162 100.64 153.317C101.027 152.472 101.566 151.707 102.227 151.063C102.887 150.419 103.657 149.906 104.499 149.551C105.341 149.195 106.237 149.003 107.148 148.983H107.435ZM144.732 170.245C142.617 173.377 139.471 175.715 135.868 176.889C132.266 178.063 128.42 178.018 124.844 176.758C121.269 175.498 118.187 173.083 116.159 169.9C114.13 166.716 113.265 162.941 113.702 159.182C113.869 156.919 114.413 154.698 115.312 152.613C116.237 150.548 117.499 148.667 119.035 147.06C122.854 143.563 127.889 142.076 132.732 143.041C133.509 143.2 134.277 143.409 135.031 143.666C136.501 144.148 137.89 144.825 139.16 145.678C143.185 148.263 145.941 152.621 146.601 157.518C146.869 159.63 146.689 161.778 146.07 163.824C145.451 165.87 144.406 167.768 143.001 169.4L144.732 170.245ZM128.16 164.072C129.019 164.072 129.866 163.862 130.624 163.46C131.383 163.058 132.03 162.478 132.506 161.77C132.981 161.063 133.269 160.252 133.345 159.409C133.42 158.567 133.28 157.721 132.937 156.945C132.594 156.169 132.059 155.489 131.385 154.968C130.71 154.447 129.917 154.102 129.083 153.965C128.25 153.828 127.4 153.902 126.604 154.182C125.809 154.461 125.094 154.938 124.526 155.569C123.649 156.604 123.204 157.953 123.281 159.326C123.358 160.699 123.95 161.991 124.931 162.923C125.913 163.856 127.211 164.384 128.558 164.398L128.16 164.072ZM155.168 182.52C153.343 184.936 150.836 186.783 147.969 187.797C145.102 188.811 142.02 188.949 139.076 188.194C136.132 187.439 133.46 185.821 131.409 183.563C129.358 181.305 128.024 178.513 127.58 175.524C127.575 175.468 127.575 175.412 127.58 175.356C127.958 171.655 129.795 168.243 132.732 165.801C133.957 164.806 135.348 164.03 136.842 163.509C137.313 163.325 137.797 163.176 138.289 163.064C139.436 162.771 140.622 162.637 141.81 162.665C143.01 162.692 144.198 162.875 145.343 163.207C146.253 163.467 147.134 163.808 147.979 164.226C149.275 164.883 150.476 165.721 151.548 166.714C154.748 169.626 156.661 173.752 156.889 178.12C157.051 181.072 156.339 184.007 154.853 186.531L155.168 182.52ZM163.507 163.802C162.177 163.802 160.854 163.628 159.568 163.286C158.271 162.952 157.026 162.439 155.873 161.764C154.719 161.089 153.669 160.26 152.759 159.3C151.168 157.685 149.957 155.744 149.21 153.615C148.464 151.487 148.197 149.219 148.427 146.972C148.658 144.725 149.381 142.553 150.549 140.602C151.716 138.651 153.302 136.964 155.204 135.652C157.106 134.341 159.279 133.438 161.581 132.999C163.883 132.561 166.256 132.597 168.541 133.107C169.838 133.441 171.083 133.954 172.236 134.629C173.389 135.304 174.44 136.133 175.35 137.093C176.94 138.708 178.152 140.649 178.898 142.777C179.645 144.906 179.911 147.174 179.681 149.421C179.451 151.667 178.727 153.839 177.56 155.791C176.393 157.742 174.806 159.429 172.904 160.741C171.003 162.052 168.83 162.955 166.527 163.393C165.529 163.646 164.507 163.787 163.48 163.811L163.507 163.802ZM163.507 141.365C162.647 141.365 161.801 141.575 161.042 141.977C160.284 142.379 159.637 142.959 159.162 143.666C158.686 144.373 158.398 145.185 158.323 146.027C158.247 146.869 158.387 147.715 158.73 148.491C159.073 149.267 159.608 149.947 160.282 150.468C160.957 150.989 161.75 151.334 162.583 151.471C163.417 151.608 164.267 151.534 165.062 151.255C165.858 150.976 166.573 150.498 167.141 149.867C168.018 148.833 168.463 147.484 168.386 146.11C168.309 144.737 167.717 143.446 166.736 142.513C165.754 141.58 164.456 141.053 163.109 141.039L163.507 141.365ZM84.7842 191.036C77.1633 190.04 70.3344 185.67 66.2901 178.979C62.2459 172.288 61.4026 164.101 64.0199 156.718C66.6373 149.335 72.4636 143.509 79.8465 140.892C80.1398 140.755 80.44 140.627 80.7471 140.507C81.3768 140.275 82.024 140.083 82.6855 139.934C82.9722 139.867 83.265 139.814 83.5618 139.776C84.2035 139.668 84.8453 139.591 85.4941 139.591C87.8941 139.611 90.2553 140.147 92.4034 141.155C94.5514 142.164 96.4345 143.624 97.9134 145.429C99.3923 147.234 100.433 149.342 100.965 151.602C101.497 153.862 101.508 156.216 100.996 158.482C100.484 160.747 99.4623 162.866 97.9994 164.685C96.5365 166.504 94.6656 167.981 92.5249 169.009C90.384 170.037 88.0258 170.595 85.6257 170.637C83.2255 170.68 80.8486 170.207 78.6726 169.257C78.1635 169.03 77.6693 168.78 77.1902 168.507C75.262 167.333 73.5846 165.783 72.2676 163.956C71.7452 163.23 71.2809 162.458 70.8787 161.643C70.0802 160.011 69.5291 158.262 69.2442 156.459C69.1796 156.028 69.1252 155.596 69.0809 155.163C69.0095 154.509 68.9734 153.849 68.9733 153.189C68.9543 147.185 71.4998 141.455 75.9683 137.406C79.3969 134.285 83.6628 132.29 88.1807 131.674C88.5853 131.613 88.9922 131.576 89.4003 131.565C89.9651 131.507 90.5374 131.478 91.1096 131.478C94.1813 131.499 97.212 132.196 100.0 133.516C102.788 134.836 105.277 136.751 107.305 139.128C108.886 140.982 110.127 143.078 110.985 145.327C111.844 147.576 112.307 149.948 112.355 152.343C112.402 154.737 112.033 157.124 111.262 159.404C110.491 161.683 109.33 163.825 107.818 165.739C106.307 167.654 104.444 169.308 102.322 170.627C100.199 171.946 97.8507 172.909 95.4068 173.469C92.9629 174.029 90.452 174.178 87.9786 173.908C85.5052 173.638 83.106 172.954 80.8886 171.889C80.9328 172.334 80.9923 172.779 81.0669 173.224C81.2641 174.105 81.5318 174.979 81.8689 175.834C82.4589 177.324 83.2827 178.704 84.309 179.919C86.9869 182.977 90.7257 184.77 94.6884 184.933C98.6511 185.097 102.513 183.619 105.41 180.817C107.098 179.001 108.355 176.817 109.089 174.432C109.587 173.384 110.424 172.516 111.473 171.964C112.522 171.412 113.722 171.206 114.893 171.377C116.064 171.549 117.142 172.088 117.951 172.913C118.759 173.738 119.253 174.799 119.351 175.924C119.456 177.183 119.457 178.45 119.351 179.709C118.943 183.033 117.951 186.266 116.424 189.276C113.838 194.132 109.842 198.044 104.99 200.531C100.138 203.018 94.643 203.955 89.2517 203.21C83.8605 202.465 78.8145 200.075 74.8094 196.34C70.8043 192.606 68.0543 187.702 66.9392 182.332C65.9103 177.805 65.9478 173.079 67.0482 168.57C68.1485 164.061 70.2767 159.895 73.2516 156.442C71.5033 160.06 70.6954 164.023 70.9977 167.992C71.3001 171.962 72.7026 175.786 75.071 179.081C77.4393 182.376 80.6966 185.016 84.4833 186.732C84.5798 188.185 84.6748 189.61 84.7842 191.036ZM104.562 112.452C103.34 109.093 103.316 105.411 104.493 102.039C105.67 98.6679 107.986 95.8084 110.991 93.9212C113.996 92.034 117.512 91.2312 120.992 91.6363C124.472 92.0414 127.67 93.6268 130.07 96.1102C130.467 96.5185 130.837 96.9465 131.181 97.3908C132.18 98.6639 132.973 100.083 133.536 101.601C133.694 102.037 133.833 102.474 133.953 102.917C134.115 103.427 134.255 103.946 134.367 104.473C134.552 105.548 134.643 106.638 134.641 107.731C134.664 108.299 134.664 108.868 134.641 109.436C134.584 110.461 134.446 111.48 134.228 112.483C133.925 113.944 133.447 115.363 132.809 116.709C131.586 119.208 129.754 121.377 127.466 123.022C125.178 124.666 122.508 125.736 119.703 126.139C116.898 126.543 114.041 126.265 111.378 125.328C108.715 124.392 106.327 122.826 104.426 120.768C103.8 120.125 103.224 119.439 102.703 118.714C101.73 117.34 100.953 115.844 100.39 114.263C99.2277 111.312 98.8492 108.107 99.2976 104.968C99.7459 101.828 100.999 98.8648 102.916 96.3688C101.549 101.534 102.819 107.244 106.441 111.009C108.218 112.798 110.408 114.105 112.8 114.813C115.193 115.521 117.715 115.608 120.154 115.068C122.594 114.528 124.869 113.375 126.759 111.72C128.649 110.064 130.092 107.957 130.957 105.584C131.822 103.211 132.079 100.652 131.705 98.1471C131.331 95.6421 130.336 93.2636 128.813 91.231C127.29 89.1983 125.284 87.5754 122.976 86.5094C120.668 85.4435 118.126 84.9652 115.595 85.1155C113.063 85.2657 110.595 86.0399 108.427 87.3628C106.26 88.6857 104.457 90.5202 103.16 92.7039C101.863 94.8876 101.11 97.3597 100.96 99.8957C100.81 102.432 101.268 104.966 102.294 107.275C103.32 109.583 104.884 111.594 106.852 113.156C108.82 114.718 111.139 115.79 113.596 116.271C116.053 116.753 118.585 116.631 120.986 115.915C123.387 115.199 125.593 113.907 127.422 112.135C129.25 110.363 130.645 108.161 131.483 105.718C132.32 103.275 132.576 100.665 132.228 98.0994C131.881 95.5342 130.94 93.0883 129.486 90.9621C131.947 92.3865 134.095 94.3267 135.795 96.6617C137.494 98.9966 138.708 101.672 139.362 104.514C140.017 107.356 140.098 110.299 139.601 113.177C139.103 116.055 138.039 118.805 136.473 121.25C133.287 126.231 128.318 129.903 122.636 131.567C116.954 133.23 110.906 132.777 105.517 130.286C100.128 127.794 95.7776 123.422 93.2251 117.985C90.6726 112.548 90.1124 106.398 91.6682 100.599C93.224 94.8007 96.7943 89.7402 101.722 86.343C106.65 82.9459 112.62 81.4403 118.487 82.0998C124.354 82.7592 129.721 85.5456 133.62 89.9445C135.457 92.0365 136.862 94.468 137.758 97.0849C138.653 99.7018 139.022 102.451 138.844 105.191C138.666 107.932 137.943 110.616 136.715 113.099C135.488 115.583 133.777 117.822 131.671 119.706C129.564 121.59 127.103 123.081 124.431 124.095C121.759 125.108 118.927 125.63 116.073 125.632C113.219 125.634 110.386 125.114 107.713 124.103C105.039 123.092 102.576 121.603 100.466 119.721C98.3559 117.839 96.6418 115.602 95.41 113.119C94.7422 111.846 94.2033 110.512 93.7977 109.135L104.562 112.452ZM179.063 157.833C176.291 164.294 170.67 169.307 163.875 171.484C162.297 171.981 160.677 172.302 159.036 172.442C157.395 172.582 155.741 172.54 154.111 172.316C152.481 172.093 150.884 171.69 149.362 171.119C147.84 170.547 146.401 169.811 145.085 168.93C143.389 167.764 141.831 166.399 140.45 164.865C140.173 164.573 139.905 164.272 139.644 163.962C139.086 163.324 138.562 162.651 138.075 161.947C137.224 160.711 136.487 159.398 135.873 158.025C135.044 156.138 134.47 154.146 134.169 152.102C133.995 150.908 133.912 149.704 133.923 148.499C133.929 147.339 133.998 146.179 134.129 145.027C134.367 142.757 134.886 140.525 135.675 138.379C136.408 136.523 137.328 134.741 138.419 133.06C139.698 130.908 141.265 128.941 143.07 127.218C144.071 126.266 145.126 125.371 146.23 124.538C147.437 123.635 148.708 122.827 150.03 122.119C150.571 121.826 151.121 121.552 151.682 121.297C152.596 120.874 153.528 120.494 154.474 120.159C156.287 119.543 158.149 119.108 160.036 118.859C162.103 118.601 164.191 118.601 166.258 118.859C169.348 119.106 172.377 119.845 175.227 121.049C178.078 122.252 180.71 123.901 182.996 125.929C185.282 127.958 187.191 130.335 188.646 132.963C190.1 135.591 191.078 138.432 191.54 141.373C192.001 144.313 191.941 147.307 191.361 150.227C190.781 153.146 189.689 155.944 188.13 158.515C186.57 161.086 184.568 163.392 182.206 165.335C181.574 165.844 180.91 166.311 180.22 166.734C179.53 167.157 178.815 167.537 178.08 167.872L179.063 157.833ZM127.6 203.22C122.164 203.222 116.807 201.934 111.973 199.464C107.139 196.993 102.963 193.409 99.7877 189.007C96.6126 184.605 94.5192 179.508 93.6823 174.126C92.8453 168.744 93.2888 163.238 94.9743 158.05C96.6599 152.862 99.5406 148.136 103.394 144.233C107.247 140.33 111.971 137.358 117.181 135.572C122.391 133.787 127.938 133.238 133.36 133.969C138.782 134.7 143.934 136.69 148.422 139.774C149.924 140.783 151.34 141.91 152.66 143.142C153.979 144.374 155.199 145.708 156.309 147.134C157.419 148.559 158.417 150.073 159.294 151.663C160.171 153.254 160.925 154.918 161.552 156.643C163.169 160.466 164.051 164.534 164.162 168.658C164.273 172.783 163.61 176.893 162.205 180.793C160.8 184.692 158.678 188.314 155.947 191.493C153.216 194.671 149.921 197.356 146.221 199.424C142.521 201.492 138.478 202.908 134.28 203.608C132.064 203.951 129.83 204.111 127.6 204.086V203.22Z" fill="black"/>
</svg>
