<svg width="150" height="50" viewBox="0 0 256 256" fill="none" xmlns="http://www.w3.org/2000/svg">
  <rect width="256" height="256" rx="35" fill="#F8FAFC"/>
  <path d="M60 65H196V191H60V65Z" fill="#F8FAFC"/>
  <path d="M124.877 60C102.029 60 83.6191 78.4101 83.6191 101.258C83.6191 118.528 94.0882 133.223 108.841 139.542V196H140.913V139.542C155.666 133.223 166.135 118.528 166.135 101.258C166.135 78.4101 147.726 60 124.877 60ZM124.877 127.085C110.842 127.085 99.4925 115.735 99.4925 101.7C99.4925 87.6657 110.842 76.3159 124.877 76.3159C138.911 76.3159 150.261 87.6657 150.261 101.7C150.261 115.735 138.911 127.085 124.877 127.085Z" fill="#5F33E1"/>
  <path d="M124.877 76.3159V127.085C110.842 127.085 99.4925 115.735 99.4925 101.7C99.4925 87.6657 110.842 76.3159 124.877 76.3159Z" fill="#5F33E1"/>
</svg>
