<svg width="150" height="50" viewBox="0 0 256 79" fill="none" xmlns="http://www.w3.org/2000/svg">
  <path d="M165.883 36.6841C165.883 44.4553 161.459 50.5722 152.374 50.5722C143.288 50.5722 138.889 44.4553 138.889 36.6841C138.889 28.9129 143.288 22.7961 152.374 22.7961C161.459 22.7961 165.883 28.9129 165.883 36.6841ZM157.674 36.6841C157.674 32.435 155.61 29.9245 152.374 29.9245C149.139 29.9245 147.097 32.435 147.097 36.6841C147.097 40.9332 149.139 43.4437 152.374 43.4437C155.61 43.4437 157.674 40.9332 157.674 36.6841Z" fill="#6C47FF"/>
  <path d="M179.538 15.6675V50.0383H171.602V15.6675H179.538Z" fill="#6C47FF"/>
  <path d="M218.4 36.6841C218.4 44.4553 213.976 50.5722 204.891 50.5722C195.805 50.5722 191.406 44.4553 191.406 36.6841C191.406 28.9129 195.805 22.7961 204.891 22.7961C213.976 22.7961 218.4 28.9129 218.4 36.6841ZM210.191 36.6841C210.191 32.435 208.127 29.9245 204.891 29.9245C201.656 29.9245 199.614 32.435 199.614 36.6841C199.614 40.9332 201.656 43.4437 204.891 43.4437C208.127 43.4437 210.191 40.9332 210.191 36.6841Z" fill="#6C47FF"/>
  <path d="M226.987 41.1571V23.3299H234.923V39.3968C234.923 41.5073 236.117 42.9175 238.205 42.9175C240.246 42.9175 242.286 41.4674 243.382 39.9172V23.3299H251.318V50.0383H243.382V46.4359C241.539 49.0839 238.551 50.4941 234.923 50.4941C230.15 50.5722 226.987 47.3838 226.987 41.1571Z" fill="#6C47FF"/>
  <path fill-rule="evenodd" clip-rule="evenodd" d="M42.1335 20.2857L16.0399 35.4158C15.6227 35.6518 15.6227 36.2596 16.0399 36.4955L42.1335 51.6256C42.5507 51.8615 43.1341 51.8615 43.5513 51.6256L69.6449 36.4955C70.062 36.2596 70.062 35.6518 69.6449 35.4158L43.5513 20.2857C43.1341 20.0497 42.5507 20.0497 42.1335 20.2857Z" fill="#6C47FF"/>
  <path d="M76.5102 43.5998C78.4454 43.5998 79.9661 42.1466 79.9661 40.2987C79.9661 38.4508 78.4454 36.9976 76.5102 36.9976C74.575 36.9976 73.0544 38.4508 73.0544 40.2987C73.0544 42.1466 74.575 43.5998 76.5102 43.5998Z" fill="#6C47FF"/>
  <path d="M94.2079 35.1799V23.3299H102.144V50.0383H94.2079V47.4615C92.1892 49.6102 89.3498 50.5722 85.7446 50.5722C78.2299 50.5722 72.9054 44.6343 72.9054 36.6841C72.9054 28.734 78.2299 22.7961 85.7446 22.7961C89.3498 22.7961 92.1892 23.7581 94.2079 25.9067V35.1799ZM94.2079 36.6841C94.2079 32.359 91.1899 30.0029 87.9865 30.0029C84.7831 30.0029 81.7651 32.359 81.7651 36.6841C81.7651 41.0092 84.7831 43.3652 87.9865 43.3652C91.1899 43.3652 94.2079 41.0092 94.2079 36.6841Z" fill="#6C47FF"/>
  <path d="M121.606 39.9172V23.3299H129.542V50.0383H121.606V46.4359C119.763 49.0839 116.775 50.4941 113.147 50.4941C108.374 50.5722 105.211 47.3838 105.211 41.1571V23.3299H113.147V39.3968C113.147 41.5073 114.341 42.9175 116.429 42.9175C118.47 42.9175 120.51 41.4674 121.606 39.9172Z" fill="#6C47FF"/>
</svg>
